<?xml version="1.0" encoding="UTF-8" standalone="no"?>
<!-- Created with Inkscape (http://www.inkscape.org/) -->

<svg
   xmlns:svg="http://www.w3.org/2000/svg"
   xmlns="http://www.w3.org/2000/svg"
   xmlns:xlink="http://www.w3.org/1999/xlink"
   version="1.1"
   width="512"
   height="512"
   viewBox="0 0 512 512"
   id="Layer_1"
   xml:space="preserve"><defs
   id="defs276"><linearGradient
     x1="246.2874"
     y1="309.29321"
     x2="344.28741"
     y2="61.9603"
     id="linearGradient3235"
     xlink:href="#SVGID_1_"
     gradientUnits="userSpaceOnUse"
     gradientTransform="matrix(1,0,0,-1,-95.5249,413.6392)" /><linearGradient
     x1="425.2825"
     y1="380.21701"
     x2="523.28308"
     y2="132.8826"
     id="linearGradient3237"
     xlink:href="#SVGID_2_"
     gradientUnits="userSpaceOnUse"
     gradientTransform="matrix(1,0,0,-1,-95.5249,413.6392)" /><radialGradient
     cx="354.77859"
     cy="148.45039"
     r="224.8774"
     id="radialGradient3239"
     xlink:href="#SVGID_3_"
     gradientUnits="userSpaceOnUse"
     gradientTransform="matrix(1,0,0,-1,-95.5249,413.6392)" /><linearGradient
     x1="393.38699"
     y1="379.51779"
     x2="393.99841"
     y2="335.52271"
     id="linearGradient3241"
     xlink:href="#SVGID_4_"
     gradientUnits="userSpaceOnUse"
     gradientTransform="matrix(1,0,0,-1,-95.5249,413.6392)" /><radialGradient
     cx="363.57639"
     cy="283.96799"
     r="226.9742"
     fx="223.23711"
     fy="279.06631"
     id="radialGradient3243"
     xlink:href="#SVGID_5_"
     gradientUnits="userSpaceOnUse"
     gradientTransform="matrix(0.2694,0.963,0.6475,-0.1811,-112.0564,-13.5191)" /><radialGradient
     cx="354.1116"
     cy="210.6165"
     r="87.217598"
     id="radialGradient3245"
     xlink:href="#SVGID_6_"
     gradientUnits="userSpaceOnUse"
     gradientTransform="matrix(1,0,0,-1,-95.5249,413.6392)" /><linearGradient
     x1="283.84009"
     y1="247.407"
     x2="405.8342"
     y2="247.407"
     id="linearGradient3247"
     xlink:href="#SVGID_7_"
     gradientUnits="userSpaceOnUse"
     gradientTransform="matrix(1,0,0,-1,-95.5249,413.6392)" /><linearGradient
     x1="315.8157"
     y1="240.5022"
     x2="362.4866"
     y2="240.5022"
     id="linearGradient3249"
     xlink:href="#SVGID_8_"
     gradientUnits="userSpaceOnUse"
     gradientTransform="matrix(1,0,0,-1,-95.5249,413.6392)" /><linearGradient
     x1="212.45731"
     y1="195.8279"
     x2="210.95731"
     y2="252.8279"
     id="linearGradient3251"
     xlink:href="#SVGID_9_"
     gradientUnits="userSpaceOnUse" /><linearGradient
     x1="325.92801"
     y1="150.7737"
     x2="333.595"
     y2="127.4396"
     id="linearGradient3253"
     xlink:href="#SVGID_10_"
     gradientUnits="userSpaceOnUse"
     gradientTransform="matrix(1,0,0,-1,-95.5249,413.6392)" /><linearGradient
     x1="299.55881"
     y1="149.41769"
     x2="415.89182"
     y2="114.4177"
     id="linearGradient3255"
     xlink:href="#SVGID_11_"
     gradientUnits="userSpaceOnUse"
     gradientTransform="matrix(1,0,0,-1,-95.5249,413.6392)" /><linearGradient
     x1="394.0549"
     y1="195.1096"
     x2="410.0549"
     y2="152.1096"
     id="linearGradient3257"
     xlink:href="#SVGID_12_"
     gradientUnits="userSpaceOnUse"
     gradientTransform="matrix(1,0,0,-1,-95.5249,413.6392)" /><linearGradient
     x1="140.63989"
     y1="153.57449"
     x2="231.7791"
     y2="153.57449"
     id="linearGradient3259"
     xlink:href="#SVGID_13_"
     gradientUnits="userSpaceOnUse"
     gradientTransform="matrix(1,0,0,-1,-95.5249,413.6392)" /><linearGradient
     x1="273.69171"
     y1="99.519798"
     x2="378.69171"
     y2="163.51981"
     id="linearGradient3261"
     xlink:href="#SVGID_14_"
     gradientUnits="userSpaceOnUse" /><radialGradient
     cx="314.44461"
     cy="191.7825"
     r="257.58679"
     id="radialGradient3263"
     xlink:href="#SVGID_15_"
     gradientUnits="userSpaceOnUse"
     gradientTransform="matrix(1,0,0,-1,-95.5249,413.6392)" /><radialGradient
     cx="314.44461"
     cy="191.78101"
     r="257.5867"
     id="radialGradient3265"
     xlink:href="#SVGID_16_"
     gradientUnits="userSpaceOnUse"
     gradientTransform="matrix(1,0,0,-1,-95.5249,413.6392)" /></defs>






<g
   transform="matrix(1.0759786,0,0,1.0759786,-19.822915,-21.942423)"
   id="Inside__x2B__gloss">
	<ellipse
   cx="263.586"
   cy="260.19"
   rx="214.66701"
   ry="209"
   id="ellipse4"
   style="fill:#4e4a4a" />
	<g
   id="g6">
		
			<linearGradient
   x1="246.2874"
   y1="309.29321"
   x2="344.28741"
   y2="61.9603"
   id="SVGID_1_"
   gradientUnits="userSpaceOnUse"
   gradientTransform="matrix(1,0,0,-1,-95.5249,413.6392)">
			<stop
   id="stop9"
   style="stop-color:#ffffff;stop-opacity:1"
   offset="0" />
			<stop
   id="stop11"
   style="stop-color:#ffffff;stop-opacity:0.88679999"
   offset="0.147" />
			<stop
   id="stop13"
   style="stop-color:#ffffff;stop-opacity:0.23"
   offset="1" />
		</linearGradient>
		<path
   d="m 143.086,106.023 c 0,0 -10.499,4.833 -9.166,24 1.333,19.167 8.333,29.417 18.583,42.417 10.25,13 20.75,27 18.5,37.25 -2.25,10.25 -9.375,73.708 61.625,98.375 l -81.625,61.375 c 0,0 4.25,13.75 19.5,30.75 l 54.917,47.667 c 0,0 -19.334,-1.166 -33.334,-7 0,0 13.334,13 37.167,12.833 l 13.167,0.167 -63.917,-67.917 c 0,0 -7.251,-10.916 6.083,-20.583 13.334,-9.667 72.667,-56.5 72.667,-56.5 0,0 44.75,2.583 66.75,-31.917 0,0 -55.75,47.249 -97.75,11.583 -42,-35.666 -45,-92.666 -45,-92.666 0,0 -0.25,-10.667 -7,-18.417 -6.75,-7.75 -2.25,-40.75 -2.25,-40.75 0,0 -8.084,-37.584 -28.917,-30.667 z"
   id="path15"
   style="fill:url(#linearGradient3235)" />
		
			<linearGradient
   x1="425.2825"
   y1="380.21701"
   x2="523.28308"
   y2="132.8826"
   id="SVGID_2_"
   gradientUnits="userSpaceOnUse"
   gradientTransform="matrix(1,0,0,-1,-95.5249,413.6392)">
			<stop
   id="stop18"
   style="stop-color:#ffffff;stop-opacity:1"
   offset="0" />
			<stop
   id="stop20"
   style="stop-color:#ffffff;stop-opacity:0.88679999"
   offset="0.147" />
			<stop
   id="stop22"
   style="stop-color:#ffffff;stop-opacity:0.23"
   offset="1" />
		</linearGradient>
		<path
   d="m 337.003,190.94 c 0,0 64.5,4.5 85.5,16.25 21,11.75 15,-2.25 12,-10.5 -3,-8.25 13.75,-14.75 14.75,0.25 1,15 2.5,30 2.25,34.25 0,0 -3.75,-24.75 -7,-31.5 -3.25,-6.75 -4,-2.25 -1,9.75 3,12 4,17.5 2.5,23.5 l -81.75,-25.75 c 0,0 -24.667,-0.834 -27.25,-16.25 z"
   id="path24"
   style="fill:url(#linearGradient3237)" />
	</g>
</g><g
   transform="matrix(1.0759786,0,0,1.0759786,-19.822915,-21.942423)"
   id="shield_sides">
	<path
   d="m 196.003,443.44 c 0,0 8.75,11.25 35.25,8 l 44,14.75 c 0,0 -55,12.25 -79.25,-22.75 z"
   id="path27"
   style="fill:#112b48" />
	<path
   d="m 139.253,93.19 -23.333,18.667 c 0,0 5,-26.334 23.333,-18.667"
   id="path29"
   style="fill:#262626" />
	<path
   d="m 227.045,312.774 1,-3.625 c 0,0 -35.792,-12.959 -50.292,-41.209 -14.5,-28.25 -13.25,-53.25 -11.75,-62.25 0,0 -1.582,-6.249 -7.749,-8.833 -6.167,-2.584 -8.001,50.333 11.249,77.333 19.25,27 55,41.75 55,41.75 l 2.542,-3.166 z"
   id="path31"
   style="fill:#2a4b72" />
	<path
   d="m 213.003,325.69 c 0,0 -49.25,38 -58.25,51.75 -9,13.75 -0.666,22.751 -0.666,22.751 0,0 15.166,19 28.333,30.5 13.167,11.5 39.833,37.999 75.083,35.999 l 3.875,-2.875 10.625,4 c 0,0 -8.125,9.25 -35,4.125 -20.7,-3.947 -67.75,-31.083 -91.083,-62.083 -23.333,-31 2.333,-42.667 28,-63 25.667,-20.333 35.667,-23.334 35.667,-23.334 l 3.416,2.167 z"
   id="path33"
   style="fill:#2a4b72" />
	<path
   d="m 457.128,197.315 c 0,0 -0.875,3.376 -15.375,2.542 0,0 -46.25,-14.167 -77,-15.917 -30.75,-1.75 -31.999,-8.416 -37.499,-17.083 -5.5,-8.667 -42.001,-35.668 -83.334,-31.334 -41.333,4.334 -67.917,45.667 -67.917,45.667 l -5.749,-2.249 7.166,-15.25 c 0,0 23.166,-38.167 73.833,-41.167 50.667,-3 80.333,17.667 94.333,34.667 14,17 64.334,14.667 96.334,27 0,0 15.249,3.915 15.208,13.124 z"
   id="path35"
   style="fill:#162e5e" />
	<path
   d="M 141.753,89.065"
   id="path37"
   style="fill:none;stroke:#f05a28;stroke-width:0.9293865" />
	<path
   d="m 141.128,96.315 c 0,0 -9.5,-8.5 -17.125,1.75 -7.625,10.25 -0.751,33.624 5.083,44.958 5.834,11.334 12.167,21.917 15.542,26.417 0,0 -9.875,-9 -18.625,-22 -8.75,-13 -14.5,-26.25 -10.75,-43.75 3.75,-17.5 19.917,-17.042 25.25,-15.166 l 0.625,7.791 z"
   id="path39"
   style="fill:#2a4b72" />
	<path
   d="m 463.128,237.44 c 0,0 7.125,-0.251 5.792,-10.917 -1.333,-10.666 -6.667,-48.958 -31.667,-88.708 0,0 21.999,19.709 35.333,75.042 13.334,55.333 -9.458,24.583 -9.458,24.583 z"
   id="path41"
   style="fill:#7f848a" />
	<path
   d="m 352.17,193.857 c 0,0 -1.707,4.791 -2.416,6.416 0,0 16.347,42.774 -17.827,88.347 l 2.326,1.57 c 0,0 45.834,-39.666 17.917,-96.333 z"
   id="path43"
   style="fill:#7e848a" />
</g><g
   transform="matrix(1.0759786,0,0,1.0759786,-19.822915,-21.942423)"
   id="_x33__shields__x2B__kern">
	
		<radialGradient
   cx="354.77859"
   cy="148.45039"
   r="224.8774"
   id="SVGID_3_"
   gradientUnits="userSpaceOnUse"
   gradientTransform="matrix(1,0,0,-1,-95.5249,413.6392)">
		<stop
   id="stop47"
   style="stop-color:#d1dce7;stop-opacity:1"
   offset="0.0909" />
		<stop
   id="stop49"
   style="stop-color:#cfdae5;stop-opacity:1"
   offset="0.4443" />
		<stop
   id="stop51"
   style="stop-color:#c9d3dd;stop-opacity:1"
   offset="0.63639998" />
		<stop
   id="stop53"
   style="stop-color:#c0c9d2;stop-opacity:1"
   offset="0.74720001" />
		<stop
   id="stop55"
   style="stop-color:#a9afb5;stop-opacity:1"
   offset="0.94069999" />
		<stop
   id="stop57"
   style="stop-color:#a1a6ab;stop-opacity:1"
   offset="1" />
	</radialGradient>
	<path
   d="m 445.586,147.857 c 0,0 78,104 3.99,222.97 -40.724,65.46 -117.333,96.499 -165,99.499 -47.667,3 -95.875,-45.375 -105.75,-55 -9.875,-9.625 -15.75,-21.124 -3,-31.999 12.75,-10.875 84.417,-65.334 84.417,-65.334 0,0 44.76,3.447 78.01,-36.303 33.25,-39.75 13.917,-87.833 13.917,-87.833 0,0 4,4.333 8.333,5.999 4.333,1.668 19.75,3.834 39.375,9.334 19.625,5.5 51.625,17.5 63.25,27.25 11.625,9.75 11.063,-3.979 9.625,-13.416 -7.333,-48.167 -27.167,-75.167 -27.167,-75.167 z"
   id="path59"
   style="fill:url(#radialGradient3239)" />
	
		<linearGradient
   x1="393.38699"
   y1="379.51779"
   x2="393.99841"
   y2="335.52271"
   id="SVGID_4_"
   gradientUnits="userSpaceOnUse"
   gradientTransform="matrix(1,0,0,-1,-95.5249,413.6392)">
		<stop
   id="stop62"
   style="stop-color:#647fad;stop-opacity:1"
   offset="0" />
		<stop
   id="stop64"
   style="stop-color:#516fa2;stop-opacity:1"
   offset="0.3759" />
		<stop
   id="stop66"
   style="stop-color:#2a4c8a;stop-opacity:1"
   offset="1" />
	</linearGradient>
	<path
   d="m 170.253,179.065 c 0,0 2.313,-4.75 -1.875,-12.125 -4.188,-7.375 -37.792,-59.751 -26.458,-90.417 0,0 57.333,-39.333 136.833,-30.833 79.5,8.5 125,49.5 145,72.5 20,23 34.167,65.667 35.167,72.334 1,6.667 -1.501,10.332 -10.334,5.499 -8.833,-4.833 -19.666,-8.333 -39.833,-13.333 -20.167,-5 -42.499,-7 -50.833,-7.5 -8.334,-0.5 -13.833,0.001 -19.083,-6.166 -5.25,-6.167 -26.917,-38.835 -76.917,-41.501 -50,-2.666 -83.001,33.084 -91.667,51.542 z"
   id="path68"
   style="fill:url(#linearGradient3241)" />
	
		<radialGradient
   cx="363.57639"
   cy="283.96799"
   r="226.9742"
   fx="223.23711"
   fy="279.06631"
   id="SVGID_5_"
   gradientUnits="userSpaceOnUse"
   gradientTransform="matrix(0.2694,0.963,0.6475,-0.1811,-112.0564,-13.5191)">
		<stop
   id="stop71"
   style="stop-color:#93bef2;stop-opacity:1"
   offset="0" />
		<stop
   id="stop73"
   style="stop-color:#80b3ef;stop-opacity:1"
   offset="0.1433" />
		<stop
   id="stop75"
   style="stop-color:#5095e8;stop-opacity:1"
   offset="0.43189999" />
		<stop
   id="stop77"
   style="stop-color:#4d93e8;stop-opacity:1"
   offset="0.44850001" />
		<stop
   id="stop79"
   style="stop-color:#4d92e5;stop-opacity:1"
   offset="0.60089999" />
		<stop
   id="stop81"
   style="stop-color:#4f8fdb;stop-opacity:1"
   offset="0.71619999" />
		<stop
   id="stop83"
   style="stop-color:#5189cb;stop-opacity:1"
   offset="0.81900001" />
		<stop
   id="stop85"
   style="stop-color:#5286c3;stop-opacity:1"
   offset="0.8574" />
	</radialGradient>
	<path
   d="m 229.815,313.815 c 0,0 -55.188,36.875 -76.688,59.063 -9.185,9.478 -18.875,13.563 0.875,38.313 19.75,24.75 57.5,55.25 91,58.5 0,0 5.667,3.417 12.584,3.584 0,0 -80.667,6.583 -146,-49.417 -65.333,-56 -98.246,-147.845 -67.333,-232 20.31,-55.288 54.499,-84.167 70.124,-96.292 8.442,-6.552 15.876,-7.541 15.876,-7.541 0,0 -17.584,5.833 -11.667,31.083 5.104,21.784 16.166,38.833 21.666,44.833 5.5,6 20.667,23.917 21.167,34.25 0.5,10.333 -8.833,41.333 13.5,75 22.333,33.667 54.896,40.624 54.896,40.624 z"
   id="path87"
   style="fill:url(#radialGradient3243)" />
	
		<radialGradient
   cx="354.1116"
   cy="210.6165"
   r="87.217598"
   id="SVGID_6_"
   gradientUnits="userSpaceOnUse"
   gradientTransform="matrix(1,0,0,-1,-95.5249,413.6392)">
		<stop
   id="stop90"
   style="stop-color:#b1def4;stop-opacity:1"
   offset="0" />
		<stop
   id="stop92"
   style="stop-color:#9bcef2;stop-opacity:1"
   offset="0.1202" />
		<stop
   id="stop94"
   style="stop-color:#62a5ec;stop-opacity:1"
   offset="0.3698" />
		<stop
   id="stop96"
   style="stop-color:#5098ea;stop-opacity:1"
   offset="0.44240001" />
		<stop
   id="stop98"
   style="stop-color:#0b86d2;stop-opacity:1"
   offset="0.69090003" />
		<stop
   id="stop100"
   style="stop-color:#0f7fc5;stop-opacity:1"
   offset="0.7317" />
		<stop
   id="stop102"
   style="stop-color:#186da2;stop-opacity:1"
   offset="0.80779999" />
		<stop
   id="stop104"
   style="stop-color:#274f69;stop-opacity:1"
   offset="0.91000003" />
		<stop
   id="stop106"
   style="stop-color:#363232;stop-opacity:1"
   offset="1" />
	</radialGradient>
	<ellipse
   cx="259.586"
   cy="226.524"
   rx="86.334"
   ry="80"
   id="ellipse108"
   style="fill:url(#radialGradient3245)" />
</g><g
   transform="matrix(1.0759786,0,0,1.0759786,-19.822915,-21.942423)"
   id="Edge_gloss">
	<path
   d="m 425.315,120.05 c 5.171,8.99 21.656,38.197 25.438,51.641 4.5,16 7.5,26.25 -1,21.25 -8.5,-5 -62.25,-17.75 -80.375,-19.125 -18.125,-1.375 -26.625,-1.375 -29,-5.25 0,0 -25.125,-42.875 -84.875,-42.875 -59.75,0 -84.5,50 -84.5,50 l 0.541,0.852 c 10.308,-18.994 42.561,-51.567 90.376,-49.019 50,2.666 71.667,35.334 76.917,41.501 5.25,6.167 10.749,5.666 19.083,6.166 8.334,0.5 30.666,2.5 50.833,7.5 20.167,5 31,8.5 39.833,13.333 8.833,4.833 11.334,1.168 10.334,-5.499 -0.973,-6.494 -14.434,-47.111 -33.605,-70.475 z"
   id="path111"
   style="opacity:0.5;fill:#ffffff" />
	<path
   d="m 456.753,235.69 c 7.833,5.667 7.833,3.333 7.833,3.333 -1.496,-1.785 -3.079,-3.454 -4.729,-5.027 -13.054,-8.901 -39.937,-19 -57.992,-24.238 -11.664,-1.974 -21.896,-3.03 -28.235,-4.816 0,0 -10.708,-2.083 -19.375,-8.083 0,0 0.621,3.109 1.139,8.198 3.619,16.565 6.26,48.663 -17.139,76.635 -33.25,39.75 -78.01,36.303 -78.01,36.303 0,0 -71.667,54.459 -84.417,65.334 -12.75,10.875 -6.875,22.374 3,31.999 8.728,8.508 47.398,47.274 89.175,54.101 1.221,0.12 2.367,0.209 3.419,0.265 0,0 -42.167,-9.75 -66.167,-33 -24,-23.25 -41.5,-34 -26.75,-46 14.75,-12 86.5,-70.75 86.5,-70.75 0,0 44.383,2.184 77.917,-41.749 27.958,-36.626 13.958,-77.501 13.958,-77.501 0,0 17.584,9.25 30.042,9.5 24.662,0.492 61.998,19.829 69.831,25.496 z"
   id="path113"
   style="opacity:0.5;fill:#ffffff" />
	<path
   d="m 470.24,209.38 c -11.675,-40.627 -15.925,-41.626 -22.3,-57.877 6.251,10.625 16.563,28.562 22.3,57.877 z"
   id="path115"
   style="fill:#ffffff" />
	<path
   d="m 138.253,161.815 c -0.101,-0.205 -0.188,-0.404 -0.285,-0.609 -5.871,-7.573 -14.91,-23.02 -19.381,-42.099 -5.029,-21.46 6.912,-28.891 10.612,-30.64 -16.248,5.141 -15.677,16.641 -9.946,39.723 5.833,23.5 19,33.625 19,33.625 z"
   id="path117"
   style="opacity:0.8;fill:#ffffff" />
	<path
   d="M 139.253,161.815"
   id="path119"
   style="fill:none;stroke:#be1e2d;stroke-width:0.9293865" />
	<path
   d="M 131.086,88.19"
   id="path121"
   style="fill:none;stroke:#be1e2d;stroke-width:0.9293865" />
	<path
   d="m 154.003,411.19 c -3.535,-4.43 -6.112,-8.188 -7.934,-11.443 -1.214,-1.271 -2.341,-1.898 -2.941,-0.807 -1.375,2.5 2.875,6.75 2.875,6.75 43,57 95.5,65.5 95.5,65.5 -8.859,-2.4 -17.355,-5.885 -25.355,-10.012 -24.504,-11.484 -47.964,-32.217 -62.145,-49.988 z"
   id="path123"
   style="opacity:0.5;fill:#ffffff" />
	<path
   d="m 267.503,147.19 c -2.863,-0.377 -5.652,-0.584 -8.372,-0.654 -8.49,0.041 -16.688,1.222 -24.429,3.378 -30.453,9.491 -46.949,35.526 -46.949,35.526 0,0 28.079,-43.671 88,-35.5 56.833,7.75 67,65.25 67,65.25 0,0 -4.295,-58.654 -75.25,-68 z"
   id="path125"
   style="opacity:0.6;fill:#ffffff" />
	<path
   d="m 160.253,149.94 c -6.5,-13 -22.833,-45.916 -18.75,-69.75 0,0 -0.581,1.019 -1.302,2.951 -4.647,28.16 19.106,68.525 26.474,80.91 -1.593,-3.868 -3.737,-8.739 -6.422,-14.111 z"
   id="path127"
   style="opacity:0.6;fill:#ffffff" />
</g><g
   transform="matrix(1.0759786,0,0,1.0759786,-19.822915,-21.942423)"
   id="Kern_gloss">
	
		<linearGradient
   x1="283.84009"
   y1="247.407"
   x2="405.8342"
   y2="247.407"
   id="SVGID_7_"
   gradientUnits="userSpaceOnUse"
   gradientTransform="matrix(1,0,0,-1,-95.5249,413.6392)">
		<stop
   id="stop131"
   style="stop-color:#000000;stop-opacity:1"
   offset="0" />
		<stop
   id="stop133"
   style="stop-color:#000916;stop-opacity:1"
   offset="0.0754" />
		<stop
   id="stop135"
   style="stop-color:#002150;stop-opacity:1"
   offset="0.233" />
		<stop
   id="stop137"
   style="stop-color:#0046ab;stop-opacity:1"
   offset="0.45770001" />
		<stop
   id="stop139"
   style="stop-color:#0052c9;stop-opacity:1"
   offset="0.5273" />
		<stop
   id="stop141"
   style="stop-color:#000000;stop-opacity:1"
   offset="0.9939" />
	</linearGradient>
	<path
   d="m 307.007,159.683 c -77.92,-37.325 -118.691,25.008 -118.691,25.008 7,-7.375 31.188,-17.5 31.188,-17.5 31.25,-20.5 58.625,-5.75 61.125,-4.125 2.5,1.625 11.125,2.75 16.5,0.25 4.021,-1.871 10.281,-1.712 13.18,-1.513 -1.083,-0.73 -2.183,-1.438 -3.302,-2.12 z"
   id="path143"
   style="opacity:0.51999996;fill:url(#linearGradient3247)" />
	<path
   d="m 220.628,166.44 c 0,0 26.709,-15.25 55.042,-5.833 0,0 -26.25,-12 -55.042,5.833 z"
   id="path145"
   style="opacity:0.4;fill:#ffffff" />
	
		<linearGradient
   x1="315.8157"
   y1="240.5022"
   x2="362.4866"
   y2="240.5022"
   id="SVGID_8_"
   gradientUnits="userSpaceOnUse"
   gradientTransform="matrix(1,0,0,-1,-95.5249,413.6392)">
		<stop
   id="stop148"
   style="stop-color:#b1def4;stop-opacity:1"
   offset="0.0061" />
		<stop
   id="stop150"
   style="stop-color:#b1def4;stop-opacity:0.07"
   offset="1" />
	</linearGradient>
	<path
   d="m 266.961,163.69 c 0,0 -24.375,3.25 -36.75,14.75 -12.375,11.5 -11.625,1.875 -6.125,-3.375 5.5,-5.25 19.625,-16.375 42.875,-11.375 z"
   id="path152"
   style="opacity:0.51999996;fill:url(#linearGradient3249)" />
	<linearGradient
   x1="212.45731"
   y1="195.8279"
   x2="210.95731"
   y2="252.8279"
   id="SVGID_9_"
   gradientUnits="userSpaceOnUse">
		<stop
   id="stop155"
   style="stop-color:#b1def4;stop-opacity:1"
   offset="0.0061" />
		<stop
   id="stop157"
   style="stop-color:#b1def4;stop-opacity:0.07"
   offset="1" />
	</linearGradient>
	<path
   d="m 228.253,169.523 c 0,0 -21.666,16.667 -21.333,54.667 0.333,38 -10.168,8.5 -10.334,3 -0.166,-5.5 0.834,-49.167 31.667,-57.667 z"
   id="path159"
   style="opacity:0.51999996;fill:url(#linearGradient3251)" />
	
		<linearGradient
   x1="325.92801"
   y1="150.7737"
   x2="333.595"
   y2="127.4396"
   id="SVGID_10_"
   gradientUnits="userSpaceOnUse"
   gradientTransform="matrix(1,0,0,-1,-95.5249,413.6392)">
		<stop
   id="stop162"
   style="stop-color:#647fad;stop-opacity:1"
   offset="0.0061" />
		<stop
   id="stop164"
   style="stop-color:#5c7197;stop-opacity:1"
   offset="0.2251" />
		<stop
   id="stop166"
   style="stop-color:#464d5e;stop-opacity:1"
   offset="0.67940003" />
		<stop
   id="stop168"
   style="stop-color:#363232;stop-opacity:1"
   offset="1" />
	</linearGradient>
	<path
   d="m 185.253,204.94 c 0,0 -6.167,35.417 10,44.75 0,0 21.75,50.5 80.25,26.75 0,0 -8.417,9.75 -10.25,16.75 0,0 -97,17.166 -80,-88.25 z"
   id="path170"
   style="opacity:0.28999999;fill:url(#linearGradient3253)" />
	
		<linearGradient
   x1="299.55881"
   y1="149.41769"
   x2="415.89182"
   y2="114.4177"
   id="SVGID_11_"
   gradientUnits="userSpaceOnUse"
   gradientTransform="matrix(1,0,0,-1,-95.5249,413.6392)">
		<stop
   id="stop173"
   style="stop-color:#647fad;stop-opacity:1"
   offset="0.0061" />
		<stop
   id="stop175"
   style="stop-color:#5c7197;stop-opacity:1"
   offset="0.2251" />
		<stop
   id="stop177"
   style="stop-color:#464d5e;stop-opacity:1"
   offset="0.67940003" />
		<stop
   id="stop179"
   style="stop-color:#363232;stop-opacity:1"
   offset="1" />
	</linearGradient>
	<path
   d="m 275.503,276.44 c -58.5,23.75 -80.25,-26.75 -80.25,-26.75 -1.127,-0.556 -2.151,-1.215 -3.085,-1.961 13.465,48.423 64.84,39.194 77.832,36.019 2.716,-4.077 5.503,-7.308 5.503,-7.308 z"
   id="path181"
   style="opacity:0.38000039;fill:url(#linearGradient3255)" />
	<path
   d="m 195.253,249.69 c 0,0 -13.333,-9.75 -10.249,-41.083 0,0 -5.917,30.083 10.249,41.083 z"
   id="path183"
   style="opacity:0.4;fill:#ffffff" />
	
		<linearGradient
   x1="394.0549"
   y1="195.1096"
   x2="410.0549"
   y2="152.1096"
   id="SVGID_12_"
   gradientUnits="userSpaceOnUse"
   gradientTransform="matrix(1,0,0,-1,-95.5249,413.6392)">
		<stop
   id="stop186"
   style="stop-color:#64b0ad;stop-opacity:1"
   offset="0.0061" />
		<stop
   id="stop188"
   style="stop-color:#5c9a97;stop-opacity:1"
   offset="0.22050001" />
		<stop
   id="stop190"
   style="stop-color:#476160;stop-opacity:1"
   offset="0.66530001" />
		<stop
   id="stop192"
   style="stop-color:#363232;stop-opacity:1"
   offset="1" />
	</linearGradient>
	<path
   d="m 286.253,289.69 c 0,0 5,-20.25 25,-35.75 20,-15.5 17.75,-50.75 0.5,-71.75 0,0 27,15.5 29,58.5 0,0 -16.5,41.25 -54.5,49 z"
   id="path194"
   style="opacity:0.38000039;fill:url(#linearGradient3257)" />
	<path
   d="m 321.237,190.247 c -4.545,-4.865 -8.323,-7.344 -9.251,-7.916 0.113,0.199 0.235,0.398 0.347,0.6 16.709,21.078 18.689,55.688 -1.079,71.01 -4.661,3.612 -8.498,7.481 -11.656,11.293 -1.293,1.751 -2.094,2.707 -2.094,2.707 0,0 30,-4.75 33,-40 1.572,-18.491 -3.802,-30.472 -9.267,-37.694 z"
   id="path196"
   style="opacity:0.13999999;fill:#ffffff" />
	<path
   d="m 312.087,182.69 c 0,0 30.5,40.5 -0.417,71.167 0,0 28.583,-25.834 0.417,-71.167 z"
   id="path198"
   style="opacity:0.4;fill:#ffffff" />
</g><g
   transform="matrix(1.0759786,0,0,1.0759786,-19.822915,-21.942423)"
   id="Gloss">
	
		<linearGradient
   x1="140.63989"
   y1="153.57449"
   x2="231.7791"
   y2="153.57449"
   id="SVGID_13_"
   gradientUnits="userSpaceOnUse"
   gradientTransform="matrix(1,0,0,-1,-95.5249,413.6392)">
		<stop
   id="stop202"
   style="stop-color:#ffffff;stop-opacity:1"
   offset="0" />
		<stop
   id="stop204"
   style="stop-color:#ffffff;stop-opacity:0"
   offset="0.76969999" />
		<stop
   id="stop206"
   style="stop-color:#ffffff;stop-opacity:0"
   offset="1" />
	</linearGradient>
	<path
   d="m 82.253,142.19 c 8.131,-12.199 22.5,-27.125 29.25,-34.5 0,0 -68.75,70 -57.916,165.501 10.204,89.952 82.667,134.666 82.667,134.666 l -12.251,4.583 c 0,0 -145.079,-115.225 -41.75,-270.25 z"
   id="path208"
   style="opacity:0.5;fill:url(#linearGradient3259)" />
	<path
   d="M 32.587,94.857"
   id="path210"
   style="fill:none;stroke:#f05a28;stroke-width:0.9293865" />
	<path
   d="m 113.815,116.815 c 0,0 -7.396,3.293 -13.646,11.876 -6.25,8.583 -7.418,14.916 -7.334,21.416 0.084,6.5 0.584,12.5 6.417,14.5 5.833,2 7,-4.917 13.5,-7.25 6.5,-2.333 9.916,-0.582 10.583,1.084 0.667,1.666 3.001,6.332 12.584,5.249 10e-4,0 -22.041,-18.417 -22.104,-46.875 z"
   id="path212"
   style="opacity:0.5;fill:#ffffff" />
	<path
   d="m 153.086,126.774 c 0,0 8.417,-30.084 -11.458,-29.334 0,0 2.875,14 6.25,21.125 3.375,7.125 3.666,7.918 5.208,8.209 z"
   id="path214"
   style="opacity:0.5;fill:#ffffff" />
	<path
   d="m 184.504,79.523 c 0,0 -3.001,-5.999 -15.084,0.584 -12.083,6.583 -15.917,10.583 -14,17.083 1.917,6.5 7.084,5.749 14.584,-0.917 7.5,-6.666 18.417,-10.417 14.5,-16.75 z"
   id="path216"
   style="opacity:0.5;fill:#ffffff" />
	<linearGradient
   x1="273.69171"
   y1="99.519798"
   x2="378.69171"
   y2="163.51981"
   id="SVGID_14_"
   gradientUnits="userSpaceOnUse">
		<stop
   id="stop219"
   style="stop-color:#ffffff;stop-opacity:1"
   offset="0.0061" />
		<stop
   id="stop221"
   style="stop-color:#b1def4;stop-opacity:0.07"
   offset="1" />
	</linearGradient>
	<path
   d="m 400.128,108.315 c 0,0 -112.875,-114.625 -259.375,-17.625 0,0 0.75,3.25 3.625,1.5 2.875,-1.75 48.875,-34.5 113.375,-33.25 64.5,1.25 105.75,32.25 114.25,40.25 8.5,8 30.833,29.749 28.125,9.125 z"
   id="path223"
   style="opacity:0.3;fill:url(#linearGradient3261)" />
	<g
   id="g225">
		<path
   d="m 56.253,346.19 c 0,0 -0.119,-0.121 -0.335,-0.377 0.219,0.28 0.335,0.377 0.335,0.377 z"
   id="path227"
   style="opacity:0.5;fill:#ffffff" />
		<path
   d="m 111.42,100.69 c 3.543,-3.985 6.275,-6.784 8.067,-8.541 -1.621,0.927 -3.341,2.043 -5.109,3.416 -7.748,6.013 -20.062,16.15 -32.981,31.578 -6.156,8.304 -12.81,18.413 -19.81,30.714 -19.122,33.604 -27.068,63.375 -28.751,89.326 -0.419,7.546 -0.387,15.078 0.063,22.567 0.823,11.626 2.797,22.332 5.354,32.105 8.263,31.576 15.998,41.983 17.665,43.956 -1.607,-2.047 -8.823,-13.961 -17.332,-70.29 -9.667,-64 32.168,-126.5 39.001,-137.5 6.833,-11 27.167,-29.831 33.833,-37.331 z"
   id="path229"
   style="opacity:0.5;fill:#ffffff" />
	</g>
	<g
   id="g231"
   style="opacity:0.4">
		
			<radialGradient
   cx="314.44461"
   cy="191.7825"
   r="257.58679"
   id="SVGID_15_"
   gradientUnits="userSpaceOnUse"
   gradientTransform="matrix(1,0,0,-1,-95.5249,413.6392)">
			<stop
   id="stop234"
   style="stop-color:#ffffff;stop-opacity:1"
   offset="0" />
			<stop
   id="stop236"
   style="stop-color:#ffffff;stop-opacity:0.39039999"
   offset="0.73900002" />
			<stop
   id="stop238"
   style="stop-color:#ffffff;stop-opacity:0.28999999"
   offset="0.86059999" />
			<stop
   id="stop240"
   style="stop-color:#ffffff;stop-opacity:0.33379999"
   offset="0.88029999" />
			<stop
   id="stop242"
   style="stop-color:#ffffff;stop-opacity:0.60000002"
   offset="1" />
		</radialGradient>
		<path
   d="m 257.587,473.274 c -6.917,-0.167 -12.584,-3.584 -12.584,-3.584 -23.012,-2.232 -48.028,-17.323 -67.84,-34.576 C 97.116,409.405 52.753,345.69 52.753,345.69 c 0.116,0.568 0.244,1.123 0.363,1.688 13.733,29.044 33.785,55.32 58.471,76.479 65.333,56 146,49.417 146,49.417 z"
   id="path244"
   style="fill:url(#radialGradient3263)" />
		
			<radialGradient
   cx="314.44461"
   cy="191.78101"
   r="257.5867"
   id="SVGID_16_"
   gradientUnits="userSpaceOnUse"
   gradientTransform="matrix(1,0,0,-1,-95.5249,413.6392)">
			<stop
   id="stop247"
   style="stop-color:#ffffff;stop-opacity:1"
   offset="0" />
			<stop
   id="stop249"
   style="stop-color:#ffffff;stop-opacity:0.39039999"
   offset="0.73900002" />
			<stop
   id="stop251"
   style="stop-color:#ffffff;stop-opacity:0.28999999"
   offset="0.86059999" />
			<stop
   id="stop253"
   style="stop-color:#ffffff;stop-opacity:0.33379999"
   offset="0.88029999" />
			<stop
   id="stop255"
   style="stop-color:#ffffff;stop-opacity:0.60000002"
   offset="1" />
		</radialGradient>
		<path
   d="m 480.706,280.62 c -14.919,36.325 -76.471,144.068 -202.453,162.569 -24.105,3.54 -46.484,3.104 -67.047,-0.048 20.161,14.616 46.848,28.853 73.37,27.184 47.667,-3 124.276,-34.039 165,-99.499 19.716,-31.692 28.641,-62.321 31.13,-90.206 z"
   id="path257"
   style="fill:url(#radialGradient3265)" />
	</g>
	<path
   d="m 174.92,273.19 c -22.333,-33.667 -13,-64.667 -13.5,-75 -0.22,-4.533 -3.262,-10.524 -7.072,-16.331 -6.062,13.485 -9.429,28.361 -9.429,43.998 0,44.582 27.317,83.001 66.677,100.53 10.637,-7.505 18.22,-12.572 18.22,-12.572 0,0 -32.563,-6.958 -54.896,-40.625 z"
   id="path259"
   style="opacity:0.6;fill:#ffffff" />
	<path
   d="m 361.697,175.453 c -18.999,-35.777 -57.593,-60.264 -102.11,-60.264 -38.846,0 -73.175,18.646 -93.917,47.167 1.25,2.113 2.199,3.686 2.709,4.583 4.188,7.375 1.875,12.125 1.875,12.125 8.666,-18.458 41.667,-54.208 91.667,-51.542 50,2.666 71.667,35.334 76.917,41.501 5.25,6.167 10.749,5.666 19.083,6.166 1.047,0.064 2.317,0.151 3.776,0.264 z"
   id="path261"
   style="opacity:0.6;fill:#ffffff" />
	<path
   d="m 259.586,336.524 c 63.329,0 114.667,-49.547 114.667,-110.667 0,-8.012 -0.89,-15.82 -2.565,-23.349 -5.408,-1.126 -9.321,-1.937 -11.185,-2.652 -4.333,-1.666 -8.333,-5.999 -8.333,-5.999 0,0 19.333,48.083 -13.917,87.833 -33.25,39.75 -78.01,36.303 -78.01,36.303 0,0 -9.316,7.078 -21.828,16.643 6.862,1.235 13.938,1.888 21.171,1.888 z"
   id="path263"
   style="opacity:0.6;fill:#ffffff" />
</g><g
   transform="matrix(1.0759786,0,0,1.0759786,-19.822915,-21.942423)"
   id="decorative_lines">
	<path
   d="m 479.003,280.69 c 0,0 -3,-26.375 -22.75,-28 0,0 7.25,92.5 -95.333,152.334 0,0 19.668,22.999 10.834,36.666 0,0 4.499,-16.333 -14.334,-37.333 0,0 96.083,-42.917 97.833,-153.667 0,0 21.5,0.666 23.75,30 z"
   id="path266"
   style="opacity:0.21000001" />
	<path
   d="m 372.754,441.69 c 0,0 7.666,-11.165 -11.834,-36.666 0,0 94.666,-47.501 95.333,-152.334 0,0 17.5,-1.001 22.75,28 0,0 -8.251,-26.165 -21.417,-25.499 0,0 7.668,89.833 -93.832,148.916 0,0 20.876,27.083 9,37.583 z"
   id="path268"
   style="opacity:0.81999966;fill:#d9dde2" />
	<path
   d="m 344.878,455.94 c 0,0 3.543,-21.583 -12.124,-39.083 0,0 -28.334,11 -48.167,13 0,0 4.499,23.168 26.333,36.834 0,0 -16.333,-9.666 -23.333,-34.5 0,0 28.833,-4.5 44.833,-13.167 0,0 11.249,6.832 12.458,36.916 z"
   id="path270"
   style="opacity:0.21000001" />
	<path
   d="m 310.92,466.691 c 0,0 -18.5,-17.168 -21,-33.334 0,0 32.792,-6.228 43.229,-13.78 0,0 10.187,17.612 11.729,36.363 0,0 0.042,-26.083 -12.458,-36.916 0,0 -24.333,10.834 -44.833,13.167 0,0 6.999,25 23.333,34.5 z"
   id="path272"
   style="opacity:0.81999966;fill:#d9dde2" />
</g>
</svg>